<svg width="34" height="36" viewBox="0 0 34 36" fill="none" xmlns="http://www.w3.org/2000/svg">
<path d="M8.08333 2.25H5.75C3.817 2.25 2.25 3.817 2.25 5.75V14.5C2.25 19.3325 6.16751 23.25 11 23.25M13.9167 2.25H16.25C18.183 2.25 19.75 3.817 19.75 5.75V14.5C19.75 19.3325 15.8325 23.25 11 23.25M11 23.25V25C11 29.8325 14.9175 33.75 19.75 33.75C24.5825 33.75 28.5 29.8325 28.5 25V23.25M28.5 23.25C30.433 23.25 32 21.683 32 19.75C32 17.817 30.433 16.25 28.5 16.25C26.567 16.25 25 17.817 25 19.75C25 21.683 26.567 23.25 28.5 23.25Z" stroke="#07001A" stroke-width="4" stroke-linecap="round"/>
</svg>
