<svg width="72" height="28" viewBox="0 0 72 28" fill="none" xmlns="http://www.w3.org/2000/svg">
<path d="M13.3 8.34V8.74C12.86 8.82 12.4133 8.98667 11.96 9.24C11.5067 9.49333 11.04 9.90667 10.56 10.48L6.78 15.12L7.68 13.68L12.46 20.88C12.6733 21.1867 12.8933 21.4333 13.12 21.62C13.3467 21.8067 13.64 21.9667 14 22.1V22.5C13.5867 22.4733 13.1133 22.46 12.58 22.46C12.0467 22.4467 11.56 22.44 11.12 22.44C10.8667 22.44 10.5467 22.4467 10.16 22.46C9.78667 22.46 9.31333 22.4733 8.74 22.5V22.1C9.27333 22.0733 9.59333 22 9.7 21.88C9.80667 21.7467 9.76 21.52 9.56 21.2L6.64 16.6C6.42667 16.2533 6.23333 15.9933 6.06 15.82C5.9 15.6467 5.73333 15.5333 5.56 15.48C5.38667 15.4133 5.17333 15.3733 4.92 15.36V14.96C5.48 14.9333 5.98 14.7867 6.42 14.52C6.86 14.2533 7.3 13.86 7.74 13.34L9.16 11.56C9.65333 10.9733 9.95333 10.4733 10.06 10.06C10.1667 9.64667 10.1067 9.32667 9.88 9.1C9.65333 8.87333 9.27333 8.75333 8.74 8.74V8.34C9.03333 8.35333 9.32667 8.36667 9.62 8.38C9.91333 8.38 10.2067 8.38667 10.5 8.4C10.8067 8.4 11.1267 8.4 11.46 8.4C11.8467 8.4 12.1933 8.39333 12.5 8.38C12.8067 8.36667 13.0733 8.35333 13.3 8.34ZM6.54 8.34V8.74C6.11333 8.75333 5.78667 8.80667 5.56 8.9C5.34667 8.98 5.2 9.14 5.12 9.38C5.04 9.60667 5 9.96667 5 10.46V20.38C5 20.86 5.04 21.22 5.12 21.46C5.2 21.7 5.34667 21.86 5.56 21.94C5.78667 22.02 6.11333 22.0733 6.54 22.1V22.5C6.20667 22.4733 5.78 22.46 5.26 22.46C4.74 22.4467 4.21333 22.44 3.68 22.44C3.08 22.44 2.52 22.4467 2 22.46C1.48 22.46 1.05333 22.4733 0.72 22.5V22.1C1.16 22.0733 1.48667 22.02 1.7 21.94C1.92667 21.86 2.07333 21.7 2.14 21.46C2.22 21.22 2.26 20.86 2.26 20.38V10.46C2.26 9.96667 2.22 9.60667 2.14 9.38C2.07333 9.14 1.92667 8.98 1.7 8.9C1.48667 8.80667 1.16 8.75333 0.72 8.74V8.34C1.05333 8.35333 1.48 8.36667 2 8.38C2.52 8.39333 3.08 8.4 3.68 8.4C4.21333 8.4 4.74 8.39333 5.26 8.38C5.78 8.36667 6.20667 8.35333 6.54 8.34ZM17.2063 22.64C16.6329 22.64 16.1463 22.5333 15.7463 22.32C15.3463 22.0933 15.0463 21.7933 14.8463 21.42C14.6463 21.0333 14.5463 20.6067 14.5463 20.14C14.5463 19.5667 14.6796 19.1 14.9463 18.74C15.2129 18.3667 15.5529 18.0733 15.9663 17.86C16.3929 17.6333 16.8396 17.4467 17.3063 17.3C17.7729 17.14 18.2129 16.9933 18.6263 16.86C19.0396 16.7133 19.3796 16.5467 19.6463 16.36C19.9129 16.1733 20.0463 15.9267 20.0463 15.62V14.16C20.0463 13.7333 19.9796 13.3867 19.8463 13.12C19.7263 12.84 19.5396 12.6333 19.2863 12.5C19.0463 12.3533 18.7396 12.28 18.3663 12.28C18.0863 12.28 17.7929 12.32 17.4863 12.4C17.1796 12.48 16.9263 12.6333 16.7263 12.86C17.0729 12.9533 17.3396 13.1267 17.5263 13.38C17.7263 13.6333 17.8263 13.94 17.8263 14.3C17.8263 14.7133 17.6863 15.04 17.4063 15.28C17.1396 15.5067 16.7996 15.62 16.3863 15.62C15.9463 15.62 15.6129 15.48 15.3863 15.2C15.1596 14.92 15.0463 14.5933 15.0463 14.22C15.0463 13.8467 15.1396 13.54 15.3263 13.3C15.5129 13.0467 15.7729 12.82 16.1063 12.62C16.4396 12.3933 16.8663 12.2133 17.3863 12.08C17.9063 11.9467 18.4729 11.88 19.0863 11.88C19.6729 11.88 20.1929 11.9467 20.6463 12.08C21.0996 12.2 21.4863 12.42 21.8063 12.74C22.1263 13.0467 22.3329 13.4267 22.4263 13.88C22.5196 14.3333 22.5663 14.8867 22.5663 15.54V21.02C22.5663 21.3533 22.6063 21.5933 22.6863 21.74C22.7663 21.8733 22.8929 21.94 23.0663 21.94C23.1996 21.94 23.3263 21.9067 23.4463 21.84C23.5663 21.7733 23.6996 21.68 23.8463 21.56L24.0663 21.9C23.7729 22.1267 23.4663 22.3067 23.1463 22.44C22.8263 22.5733 22.4396 22.64 21.9863 22.64C21.5196 22.64 21.1463 22.5733 20.8663 22.44C20.5996 22.3067 20.3996 22.1133 20.2663 21.86C20.1463 21.6067 20.0796 21.3067 20.0663 20.96C19.7463 21.4933 19.3529 21.9067 18.8863 22.2C18.4196 22.4933 17.8596 22.64 17.2063 22.64ZM18.4063 21.52C18.7263 21.52 19.0196 21.4333 19.2863 21.26C19.5663 21.0867 19.8196 20.8267 20.0463 20.48V16.44C19.9129 16.64 19.7196 16.82 19.4663 16.98C19.2263 17.14 18.9663 17.3 18.6863 17.46C18.4063 17.62 18.1396 17.8067 17.8863 18.02C17.6463 18.22 17.4396 18.4733 17.2663 18.78C17.1063 19.0733 17.0263 19.4533 17.0263 19.92C17.0263 20.44 17.1529 20.84 17.4063 21.12C17.6596 21.3867 17.9929 21.52 18.4063 21.52ZM31.2811 11.88C31.6944 11.88 32.0344 11.9667 32.3011 12.14C32.5811 12.3133 32.7878 12.5333 32.9211 12.8C33.0544 13.0667 33.1211 13.3467 33.1211 13.64C33.1211 14.08 32.9878 14.4467 32.7211 14.74C32.4678 15.0333 32.1278 15.18 31.7011 15.18C31.3011 15.18 30.9744 15.0733 30.7211 14.86C30.4678 14.6467 30.3411 14.3533 30.3411 13.98C30.3411 13.6467 30.4211 13.3667 30.5811 13.14C30.7544 12.9133 30.9478 12.7333 31.1611 12.6C31.0144 12.52 30.8478 12.4933 30.6611 12.52C30.3411 12.5467 30.0478 12.66 29.7811 12.86C29.5144 13.06 29.2878 13.3067 29.1011 13.6C28.9144 13.8933 28.7678 14.2067 28.6611 14.54C28.5678 14.8733 28.5211 15.1933 28.5211 15.5V20.44C28.5211 21.0933 28.6878 21.5333 29.0211 21.76C29.3544 21.9733 29.8411 22.08 30.4811 22.08V22.5C30.1744 22.4867 29.7278 22.4733 29.1411 22.46C28.5678 22.4333 27.9678 22.42 27.3411 22.42C26.8211 22.42 26.3011 22.4333 25.7811 22.46C25.2744 22.4733 24.8944 22.4867 24.6411 22.5V22.08C25.1344 22.08 25.4811 21.98 25.6811 21.78C25.8944 21.58 26.0011 21.2 26.0011 20.64V14.34C26.0011 13.74 25.9011 13.3 25.7011 13.02C25.5144 12.7267 25.1611 12.58 24.6411 12.58V12.16C25.0678 12.2 25.4811 12.22 25.8811 12.22C26.3744 12.22 26.8411 12.2 27.2811 12.16C27.7344 12.1067 28.1478 12.0333 28.5211 11.94V14.02C28.6811 13.6467 28.8878 13.3 29.1411 12.98C29.4078 12.66 29.7211 12.4 30.0811 12.2C30.4544 11.9867 30.8544 11.88 31.2811 11.88ZM38.5483 11.88C39.7216 11.88 40.6416 12.2333 41.3083 12.94C41.9749 13.6467 42.3083 14.7733 42.3083 16.32H35.5683L35.5483 15.94H39.9883C40.0149 15.2867 39.9749 14.6867 39.8683 14.14C39.7616 13.58 39.5883 13.1333 39.3483 12.8C39.1216 12.4667 38.8216 12.3 38.4483 12.3C37.9416 12.3 37.5016 12.6 37.1283 13.2C36.7549 13.7867 36.5216 14.7533 36.4283 16.1L36.5083 16.22C36.4816 16.3933 36.4616 16.58 36.4483 16.78C36.4483 16.98 36.4483 17.18 36.4483 17.38C36.4483 18.3 36.5816 19.06 36.8483 19.66C37.1149 20.26 37.4616 20.7 37.8883 20.98C38.3149 21.26 38.7549 21.4 39.2083 21.4C39.5149 21.4 39.8283 21.3533 40.1483 21.26C40.4683 21.1667 40.7816 20.9933 41.0883 20.74C41.3949 20.4867 41.6749 20.1267 41.9283 19.66L42.3083 19.82C42.1616 20.2867 41.9149 20.7533 41.5683 21.22C41.2349 21.6733 40.8016 22.0467 40.2683 22.34C39.7349 22.6333 39.1083 22.78 38.3883 22.78C37.4816 22.78 36.6816 22.58 35.9883 22.18C35.2949 21.78 34.7549 21.1867 34.3683 20.4C33.9816 19.6 33.7883 18.6267 33.7883 17.48C33.7883 16.2667 33.9883 15.2467 34.3883 14.42C34.8016 13.5933 35.3683 12.9667 36.0883 12.54C36.8083 12.1 37.6283 11.88 38.5483 11.88ZM43.6302 8.34C43.9635 8.35333 44.3902 8.36667 44.9102 8.38C45.4302 8.39333 45.9502 8.4 46.4702 8.4C47.1235 8.4 47.7435 8.39333 48.3302 8.38C48.9168 8.36667 49.3302 8.36 49.5702 8.36C51.3568 8.36 52.6835 8.72667 53.5502 9.46C54.4302 10.1933 54.8702 11.14 54.8702 12.3C54.8702 12.78 54.7835 13.2867 54.6102 13.82C54.4368 14.34 54.1368 14.8267 53.7102 15.28C53.2835 15.72 52.6968 16.08 51.9502 16.36C51.2168 16.64 50.2768 16.78 49.1302 16.78H47.1302V16.38H48.9302C49.7702 16.38 50.4102 16.2 50.8502 15.84C51.3035 15.48 51.6035 15.0067 51.7502 14.42C51.9102 13.8333 51.9902 13.2 51.9902 12.52C51.9902 11.2533 51.7835 10.3067 51.3702 9.68C50.9568 9.05333 50.2435 8.74 49.2302 8.74C48.6835 8.74 48.3235 8.85333 48.1502 9.08C47.9902 9.30667 47.9102 9.76667 47.9102 10.46V20.3C47.9102 20.8067 47.9635 21.1867 48.0702 21.44C48.1768 21.6933 48.3835 21.86 48.6902 21.94C48.9968 22.02 49.4368 22.0667 50.0102 22.08V22.5C49.6235 22.4733 49.1235 22.46 48.5102 22.46C47.8968 22.4467 47.2635 22.44 46.6102 22.44C46.0502 22.44 45.5102 22.4467 44.9902 22.46C44.4702 22.46 44.0168 22.4733 43.6302 22.5V22.1C44.0702 22.0733 44.3968 22.02 44.6102 21.94C44.8368 21.86 44.9835 21.7 45.0502 21.46C45.1302 21.22 45.1702 20.86 45.1702 20.38V10.46C45.1702 9.96667 45.1302 9.60667 45.0502 9.38C44.9835 9.14 44.8368 8.98 44.6102 8.9C44.3968 8.80667 44.0702 8.75333 43.6302 8.74V8.34ZM58.4563 22.64C57.8829 22.64 57.3963 22.5333 56.9963 22.32C56.5963 22.0933 56.2963 21.7933 56.0963 21.42C55.8963 21.0333 55.7963 20.6067 55.7963 20.14C55.7963 19.5667 55.9296 19.1 56.1963 18.74C56.4629 18.3667 56.8029 18.0733 57.2163 17.86C57.6429 17.6333 58.0896 17.4467 58.5563 17.3C59.0229 17.14 59.4629 16.9933 59.8763 16.86C60.2896 16.7133 60.6296 16.5467 60.8963 16.36C61.1629 16.1733 61.2963 15.9267 61.2963 15.62V14.16C61.2963 13.7333 61.2296 13.3867 61.0963 13.12C60.9763 12.84 60.7896 12.6333 60.5363 12.5C60.2963 12.3533 59.9896 12.28 59.6163 12.28C59.3363 12.28 59.0429 12.32 58.7363 12.4C58.4296 12.48 58.1763 12.6333 57.9763 12.86C58.3229 12.9533 58.5896 13.1267 58.7763 13.38C58.9763 13.6333 59.0763 13.94 59.0763 14.3C59.0763 14.7133 58.9363 15.04 58.6563 15.28C58.3896 15.5067 58.0496 15.62 57.6363 15.62C57.1963 15.62 56.8629 15.48 56.6363 15.2C56.4096 14.92 56.2963 14.5933 56.2963 14.22C56.2963 13.8467 56.3896 13.54 56.5763 13.3C56.7629 13.0467 57.0229 12.82 57.3563 12.62C57.6896 12.3933 58.1163 12.2133 58.6363 12.08C59.1563 11.9467 59.7229 11.88 60.3363 11.88C60.9229 11.88 61.4429 11.9467 61.8963 12.08C62.3496 12.2 62.7363 12.42 63.0563 12.74C63.3763 13.0467 63.5829 13.4267 63.6763 13.88C63.7696 14.3333 63.8163 14.8867 63.8163 15.54V21.02C63.8163 21.3533 63.8563 21.5933 63.9363 21.74C64.0163 21.8733 64.1429 21.94 64.3163 21.94C64.4496 21.94 64.5763 21.9067 64.6963 21.84C64.8163 21.7733 64.9496 21.68 65.0963 21.56L65.3163 21.9C65.0229 22.1267 64.7163 22.3067 64.3963 22.44C64.0763 22.5733 63.6896 22.64 63.2363 22.64C62.7696 22.64 62.3963 22.5733 62.1163 22.44C61.8496 22.3067 61.6496 22.1133 61.5163 21.86C61.3963 21.6067 61.3296 21.3067 61.3163 20.96C60.9963 21.4933 60.6029 21.9067 60.1363 22.2C59.6696 22.4933 59.1096 22.64 58.4563 22.64ZM59.6563 21.52C59.9763 21.52 60.2696 21.4333 60.5363 21.26C60.8163 21.0867 61.0696 20.8267 61.2963 20.48V16.44C61.1629 16.64 60.9696 16.82 60.7163 16.98C60.4763 17.14 60.2163 17.3 59.9363 17.46C59.6563 17.62 59.3896 17.8067 59.1363 18.02C58.8963 18.22 58.6896 18.4733 58.5163 18.78C58.3563 19.0733 58.2763 19.4533 58.2763 19.92C58.2763 20.44 58.4029 20.84 58.6563 21.12C58.9096 21.3867 59.2429 21.52 59.6563 21.52ZM69.6511 6.84V20.64C69.6511 21.2 69.7511 21.58 69.9511 21.78C70.1644 21.98 70.5178 22.08 71.0111 22.08V22.5C70.7711 22.4867 70.4044 22.4733 69.9111 22.46C69.4311 22.4333 68.9378 22.42 68.4311 22.42C67.9378 22.42 67.4311 22.4333 66.9111 22.46C66.4044 22.4733 66.0244 22.4867 65.7711 22.5V22.08C66.2644 22.08 66.6111 21.98 66.8111 21.78C67.0244 21.58 67.1311 21.2 67.1311 20.64V9.24C67.1311 8.64 67.0378 8.2 66.8511 7.92C66.6644 7.62667 66.3044 7.48 65.7711 7.48V7.06C66.1978 7.1 66.6111 7.12 67.0111 7.12C67.5178 7.12 67.9911 7.1 68.4311 7.06C68.8711 7.00667 69.2778 6.93333 69.6511 6.84Z" fill="#2937B6"/>
</svg>
